<svg version="1.1" xmlns="http://www.w3.org/2000/svg" width="444" height="444" viewBox="0 0 222 222"><g transform="scale(0.867,0.867)"><rect fill="#CC0000" x="0" y="0" rx="16" ry="16" width="256" height="256" /><rect fill="#CC0000" x="9" y="9" rx="12" ry="12" width="238" height="238" /></g><g transform="translate(15,15) scale(0.094,0.094)"><g transform="translate(0,0)"><g transform="scale(1,-1) translate(0,-820)"><path stroke="none" fill="#FFFFFF" d="M110 714V652Q110 628 121 616Q132 604 156 604H205V706Q205 762 241 762Q277 762 277 706V604H333Q357 604 368 615Q379 627 379 652V706Q379 762 416 762Q452 762 452 706V610Q452 569 433 550Q414 531 373 531H277V517Q277 462 241 462Q205 462 205 517V531H114Q73 531 55 550Q36 569 36 610V714Q36 770 73 770Q110 770 110 714V714V714ZM617 706V652Q617 627 628 615Q639 604 663 604H711V714Q711 770 747 770Q783 770 783 714V604H836Q860 604 872 615Q884 627 884 652V706Q884 762 920 762Q956 762 956 706V610Q956 569 937 550Q919 531 878 531H783V517Q783 462 747 462Q711 462 711 517V531H623Q581 531 562 550Q544 569 544 610V706Q544 762 580 762Q617 762 617 706V706V706ZM36 361Q36 402 55 421Q73 439 114 439H247Q303 439 303 398Q303 357 247 357H156Q132 357 121 345Q110 334 110 310V-26Q110 -51 116 -63Q123 -75 136 -75H176Q190 -75 197 -63Q205 -50 205 -26V186Q205 228 223 246Q241 264 283 264H369V407Q369 464 406 464Q442 464 442 407V-26Q442 -51 453 -63Q464 -75 488 -75H544V409Q544 466 580 466Q617 466 617 409V264H705Q746 264 765 246Q783 228 783 186V146Q783 121 790 109Q797 97 812 97H854Q869 97 876 109Q884 121 884 146V310Q884 334 872 345Q860 357 836 357H733Q676 357 676 398Q676 439 733 439H878Q919 439 937 421Q956 402 956 361V95Q956 55 937 36Q919 17 878 17H789Q748 17 729 36Q711 54 711 95V146Q711 169 699 181Q687 192 663 192H617V-75H902Q958 -75 958 -111Q958 -147 902 -147H448Q406 -147 387 -128Q369 -110 369 -69V192H323Q299 192 288 181Q277 170 277 146V-69Q277 -109 258 -128Q239 -147 198 -147H114Q73 -147 55 -128Q36 -109 36 -69V361V361V362V361Z" /></g></g><g transform="translate(1024,0)"><g transform="scale(1,-1) translate(0,-820)"><path stroke="none" fill="#FFFFFF" d="M110 722V720H369V744Q369 764 411 764Q452 764 452 744V326Q452 286 411 286Q369 286 369 326V328H110V-91Q110 -146 73 -146Q36 -146 36 -91V722Q36 771 73 771Q110 771 110 722V722V722ZM617 722V720H884V744Q884 764 920 764Q956 764 956 744V-95Q956 -150 920 -150Q884 -150 884 -95V328H617V304Q617 285 580 285Q544 285 544 304V722Q544 763 580 763Q617 763 617 722V722V722ZM110 640V560H367V640H110V640ZM617 640V560H884V640H617V640ZM110 479V401H367V479H110V479ZM617 479V401H884V479H617V479ZM182 276H814Q869 276 869 234Q869 192 814 192H617V83H810Q865 83 865 47Q865 11 810 11H617V-26Q617 -51 628 -63Q639 -75 663 -75H812Q867 -75 867 -111Q867 -147 812 -147H623Q581 -147 562 -128Q544 -110 544 -69V11H452V-69Q452 -109 433 -128Q414 -147 373 -147H182Q125 -147 125 -111Q125 -75 182 -75H321Q345 -75 357 -63Q369 -50 369 -26V11H182Q125 11 125 47Q125 83 182 83H369V194H182Q125 194 125 235Q125 276 182 276V276V276ZM452 192V83H544V192H452V192V193V192Z" /></g></g><g transform="translate(0,1024)"><g transform="scale(1,-1) translate(0,-820)"><path stroke="none" fill="#FFFFFF" d="M110 722V459H836Q860 459 872 471Q884 483 884 507V652Q884 676 872 687Q860 698 836 698H313Q256 698 256 739Q256 781 313 781H878Q919 781 937 762Q956 743 956 702V465Q956 424 937 406Q919 387 878 387H110V242H878Q919 242 937 224Q956 205 956 164V-69Q956 -109 937 -128Q919 -147 878 -147H313Q256 -147 256 -111Q256 -75 313 -75H836Q860 -75 872 -63Q884 -50 884 -26V121Q884 145 872 157Q860 168 836 168H110V-91Q110 -146 73 -146Q36 -146 36 -91V722Q36 778 73 778Q110 778 110 722V722V722V723V722Z" /></g></g><g transform="translate(1024,1024)"><g transform="scale(1,-1) translate(0,-820)"><path stroke="none" fill="#FFFFFF" d="M36 730Q36 786 73 786Q110 786 110 730V529Q110 474 73 474Q36 474 36 529V730V730ZM285 732V560Q285 519 269 490Q254 461 221 435L146 381Q127 367 117 349Q108 331 108 306V-91Q108 -146 72 -146Q36 -146 36 -91V308Q36 349 51 379Q67 409 100 433L174 487Q194 502 203 521Q213 539 213 564V732Q213 788 249 788Q285 788 285 732V732V732ZM343 702Q343 743 361 762Q380 781 422 781H898Q954 781 954 740Q954 700 898 700H741V648H878Q919 648 937 630Q956 611 956 570V417Q956 376 944 357Q931 338 904 338H878Q862 338 855 327Q848 317 848 292V-6Q848 -31 849 -42Q851 -55 856 -55H874Q878 -55 881 -42Q884 -30 884 -6V220Q884 277 920 277Q956 277 956 220V-52Q956 -93 937 -112Q919 -131 878 -131H858Q816 -131 797 -112Q779 -94 779 -52V340Q779 382 791 400Q803 419 830 419H854Q869 419 876 429Q884 439 884 463V529Q884 553 872 564Q860 574 836 574H576Q552 574 541 564Q530 553 530 529V465Q530 441 537 430Q544 419 560 419H584Q612 419 624 401Q637 382 637 340V-57Q637 -97 618 -116Q599 -135 558 -135H536Q494 -135 476 -116Q458 -98 458 -57V228Q458 285 494 285Q530 285 530 228V-8Q530 -33 532 -44Q534 -57 538 -57H556Q561 -57 564 -44Q566 -32 566 -8V288Q566 312 559 323Q551 334 534 334H510Q482 334 470 353Q458 372 458 413V570Q458 612 476 630Q494 648 536 648H675V698H468Q444 698 433 687Q422 676 422 652V-87Q422 -142 382 -142Q343 -142 343 -87V702V702ZM592 537H814Q869 537 869 498Q869 459 814 459H751V-91Q751 -146 711 -146Q671 -146 671 -91V459H592Q535 459 535 498Q535 537 592 537V537V537ZM213 342Q213 400 249 400Q285 400 285 342V-87Q285 -142 249 -142Q213 -142 213 -87V342V342V343V342Z" /></g></g></g></svg>